<svg width="107" height="33" viewBox="0 0 107 33" fill="none" xmlns="http://www.w3.org/2000/svg">
<g clip-path="url(#clip0_77_7)">
<path d="M22 7.5H18L13.25 15.275L8.5 7.5H4.5V25H8.5V14.825L13.025 22.25H13.475L18 14.825V25H22V7.5ZM33.3578 25.35C38.3828 25.35 42.4578 21.4 42.4578 16.25C42.4578 11.1 38.3828 7.15 33.3578 7.15C28.3328 7.15 24.2578 11.1 24.2578 16.25C24.2578 21.4 28.3328 25.35 33.3578 25.35ZM33.3578 21.45C30.5078 21.45 28.2578 19.375 28.2578 16.25C28.2578 13.125 30.5078 11.05 33.3578 11.05C36.2078 11.05 38.4578 13.125 38.4578 16.25C38.4578 19.375 36.2078 21.45 33.3578 21.45ZM54.21 7.5V14.2H48.71V7.5H44.71V25H48.71V18.05H54.21V25H58.21V7.5H54.21ZM69.5639 25.35C74.5889 25.35 78.6639 21.4 78.6639 16.25C78.6639 11.1 74.5889 7.15 69.5639 7.15C64.5389 7.15 60.4639 11.1 60.4639 16.25C60.4639 21.4 64.5389 25.35 69.5639 25.35ZM69.5639 21.45C66.7139 21.45 64.4639 19.375 64.4639 16.25C64.4639 13.125 66.7139 11.05 69.5639 11.05C72.4139 11.05 74.6639 13.125 74.6639 16.25C74.6639 19.375 72.4139 21.45 69.5639 21.45ZM90.666 7.5V17L83.916 7.5H80.916V25H84.916V15.5L91.666 25H94.666V7.5H90.666ZM99.6641 25.35C100.964 25.35 102.039 24.275 102.039 22.975C102.039 21.675 100.964 20.6 99.6641 20.6C98.3641 20.6 97.2891 21.675 97.2891 22.975C97.2891 24.275 98.3641 25.35 99.6641 25.35Z" fill="#4D58F9"/>
<path d="M43 16.5C43 21.7467 38.7467 26 33.5 26C28.2533 26 24 21.7467 24 16.5C24 11.2533 28.2533 7 33.5 7C38.7467 7 43 11.2533 43 16.5Z" fill="url(#paint0_linear_77_7)"/>
<g opacity="0.9">
<path d="M30.2411 19.9547C30.1377 19.9547 30.0353 19.9344 29.9397 19.8948C29.8441 19.8553 29.7572 19.7973 29.6841 19.7242L27.5838 17.6239C27.5106 17.5508 27.4525 17.4639 27.4129 17.3683C27.3733 17.2727 27.3529 17.1703 27.3529 17.0668C27.3529 16.9633 27.3733 16.8609 27.4129 16.7653C27.4525 16.6697 27.5106 16.5829 27.5838 16.5097L29.6841 14.4095C29.8318 14.2617 30.0322 14.1787 30.2411 14.1787C30.4501 14.1787 30.6505 14.2617 30.7982 14.4095C30.946 14.5572 31.029 14.7576 31.029 14.9666C31.029 15.1755 30.946 15.3759 30.7982 15.5237L29.2546 17.0668L30.7982 18.61C30.9085 18.7201 30.9835 18.8605 31.0139 19.0133C31.0444 19.1662 31.0288 19.3246 30.9691 19.4685C30.9095 19.6125 30.8085 19.7355 30.6789 19.8221C30.5493 19.9086 30.397 19.9547 30.2411 19.9547Z" fill="white"/>
</g>
<g opacity="0.9">
<path d="M36.5419 19.9547C36.3861 19.9547 36.2337 19.9086 36.1042 19.8221C35.9746 19.7355 35.8736 19.6125 35.8139 19.4685C35.7543 19.3246 35.7387 19.1662 35.7691 19.0133C35.7995 18.8605 35.8746 18.7201 35.9848 18.61L37.5285 17.0668L35.9848 15.5237C35.9117 15.4505 35.8536 15.3636 35.814 15.2681C35.7744 15.1725 35.7541 15.07 35.7541 14.9666C35.7541 14.8631 35.7744 14.7606 35.814 14.6651C35.8536 14.5695 35.9117 14.4826 35.9848 14.4095C36.1326 14.2617 36.333 14.1787 36.5419 14.1787C36.6454 14.1787 36.7478 14.1991 36.8434 14.2387C36.939 14.2783 37.0258 14.3363 37.099 14.4095L39.1993 16.5097C39.2724 16.5829 39.3305 16.6697 39.3701 16.7653C39.4097 16.8609 39.4301 16.9633 39.4301 17.0668C39.4301 17.1703 39.4097 17.2727 39.3701 17.3683C39.3305 17.4639 39.2724 17.5508 39.1993 17.6239L37.099 19.7242C37.0258 19.7973 36.939 19.8553 36.8434 19.8948C36.7478 19.9344 36.6454 19.9547 36.5419 19.9547Z" fill="white"/>
</g>
<g opacity="0.5">
<path d="M32.3414 21.5296C32.2681 21.5295 32.1951 21.5192 32.1246 21.4991C31.9238 21.4417 31.754 21.3069 31.6526 21.1243C31.5512 20.9418 31.5264 20.7264 31.5837 20.5256L33.684 13.1747C33.7108 13.0735 33.7575 12.9785 33.8214 12.8955C33.8853 12.8125 33.9651 12.7431 34.0561 12.6913C34.1472 12.6396 34.2477 12.6065 34.3517 12.594C34.4557 12.5815 34.5611 12.5899 34.6618 12.6187C34.7625 12.6475 34.8565 12.696 34.9382 12.7616C35.0199 12.8271 35.0878 12.9083 35.1377 13.0004C35.1877 13.0924 35.2188 13.1935 35.2292 13.2978C35.2396 13.402 35.2291 13.5073 35.1983 13.6074L33.098 20.9583C33.0511 21.1227 32.9518 21.2674 32.8153 21.3705C32.6788 21.4736 32.5125 21.5294 32.3414 21.5296Z" fill="white"/>
</g>
<path d="M76.1722 9.3281L72.4657 13.0346C71.7066 12.2755 70.6581 11.8059 69.5001 11.8059V6.56445C72.1055 6.56445 74.4648 7.62031 76.1722 9.3281Z" fill="url(#paint1_linear_77_7)"/>
<path d="M66.5345 13.0346C65.7754 13.7936 65.3058 14.8422 65.3058 16.0002H60.0644C60.0644 13.3947 61.1202 11.0355 62.828 9.32812L66.5345 13.0346Z" fill="url(#paint2_linear_77_7)"/>
<path d="M69.5001 6.56445V11.8059C68.3421 11.8059 67.2936 12.2755 66.5345 13.0346L62.828 9.3281C64.5354 7.62031 66.8946 6.56445 69.5001 6.56445Z" fill="url(#paint3_linear_77_7)"/>
<path d="M78.9358 16.0002H73.6944C73.6944 14.8422 73.2248 13.7936 72.4657 13.0346L76.1722 9.32812C77.88 11.0355 78.9358 13.3947 78.9358 16.0002Z" fill="url(#paint4_linear_77_7)"/>
<path d="M78.9358 16C78.9358 18.6055 77.88 20.9647 76.1722 22.6721L72.4657 18.9656C73.2248 18.2065 73.6944 17.158 73.6944 16H78.9358Z" fill="url(#paint5_linear_77_7)"/>
<path d="M66.5345 18.9656L62.828 22.6721C61.1202 20.9647 60.0644 18.6055 60.0644 16H65.3058C65.3058 17.158 65.7754 18.2065 66.5345 18.9656Z" fill="url(#paint6_linear_77_7)"/>
<path d="M76.1722 22.6723C74.4648 24.3801 72.1055 25.4359 69.5001 25.4359V20.1945C70.6581 20.1945 71.7066 19.7249 72.4657 18.9658L76.1722 22.6723Z" fill="url(#paint7_linear_77_7)"/>
<path d="M69.5001 20.1945V25.4359C66.8946 25.4359 64.5354 24.3801 62.828 22.6723L66.5345 18.9658C67.2936 19.7249 68.3421 20.1945 69.5001 20.1945Z" fill="url(#paint8_linear_77_7)"/>
<path d="M74.5615 10.9385L72.4657 13.0343C71.7066 12.2752 70.6581 11.8056 69.5001 11.8056V8.84229C71.4769 8.84229 73.2658 9.64332 74.5615 10.9385Z" fill="url(#paint9_linear_77_7)"/>
<path d="M66.5345 13.0342C65.7754 13.7933 65.3058 14.8419 65.3058 15.9998H62.3425C62.3425 14.0231 63.1435 12.2341 64.4387 10.9385L66.5345 13.0342Z" fill="url(#paint10_linear_77_7)"/>
<path d="M69.5001 8.84229V11.8056C68.3421 11.8056 67.2935 12.2752 66.5345 13.0343L64.4387 10.9385C65.7344 9.64332 67.5233 8.84229 69.5001 8.84229Z" fill="url(#paint11_linear_77_7)"/>
<path d="M76.6577 15.9998H73.6944C73.6944 14.8419 73.2248 13.7933 72.4657 13.0342L74.5615 10.9385C75.8567 12.2341 76.6577 14.0231 76.6577 15.9998Z" fill="url(#paint12_linear_77_7)"/>
<path d="M76.6577 16C76.6577 17.9768 75.8567 19.7657 74.5615 21.0614L72.4657 18.9656C73.2248 18.2065 73.6944 17.158 73.6944 16H76.6577Z" fill="url(#paint13_linear_77_7)"/>
<path d="M66.5345 18.9656L64.4387 21.0614C63.1435 19.7657 62.3425 17.9768 62.3425 16H65.3058C65.3058 17.158 65.7754 18.2065 66.5345 18.9656Z" fill="url(#paint14_linear_77_7)"/>
<path d="M74.5615 21.0611C73.2658 22.3563 71.4769 23.1573 69.5001 23.1573V20.194C70.6581 20.194 71.7066 19.7244 72.4657 18.9653L74.5615 21.0611Z" fill="url(#paint15_linear_77_7)"/>
<path d="M69.5001 20.194V23.1573C67.5233 23.1573 65.7344 22.3563 64.4387 21.0611L66.5345 18.9653C67.2935 19.7244 68.3421 20.194 69.5001 20.194Z" fill="url(#paint16_linear_77_7)"/>
<path d="M77.2617 10.6343L73.4117 14.4844C73.5941 14.9546 73.6944 15.4658 73.6944 16.0004C73.6944 17.1583 73.2248 18.2069 72.4657 18.966C71.7066 19.725 70.6581 20.1946 69.5001 20.1946C68.9655 20.1946 68.4543 20.0943 67.9841 19.9119L64.134 23.762C65.6576 24.8174 67.5066 25.4361 69.5001 25.4361C72.1056 25.4361 74.4648 24.3802 76.1722 22.6724C77.88 20.9651 78.9359 18.6058 78.9359 16.0004C78.9358 14.0068 78.3171 12.1578 77.2617 10.6343Z" fill="url(#paint17_linear_77_7)"/>
<path d="M61.5358 19.9034L59.5206 25.5405C59.4232 25.8133 59.6865 26.0767 59.9593 25.9792L65.5964 23.9641C66.7211 22.8394 62.6605 18.7788 61.5358 19.9034Z" fill="url(#paint18_linear_77_7)"/>
<path d="M72.4015 17.1598L65.5963 23.9643C65.4852 23.7717 65.3162 23.6012 65.0998 23.4804C64.8041 23.3166 64.3417 23.4063 64.0215 23.5034C63.9518 23.5241 63.8881 23.4878 63.8622 23.4322C63.8458 23.3989 63.8429 23.3581 63.8607 23.3181C63.8614 23.3181 63.8614 23.3174 63.8614 23.3174C63.8792 23.2766 63.8948 23.2351 63.9081 23.1936C63.914 23.1736 63.92 23.1536 63.9259 23.1336C63.9267 23.1321 63.9267 23.1313 63.9267 23.1299C63.9437 23.0654 63.9556 23.0009 63.9622 22.935C63.9645 22.9135 63.966 22.8912 63.9674 22.8698C63.9693 22.8339 63.9696 22.7981 63.9684 22.7623C63.9603 22.5118 63.8785 22.263 63.7228 22.0516C63.685 21.9997 63.6428 21.9508 63.5961 21.9041C63.5494 21.8574 63.5005 21.8151 63.4486 21.7773C63.207 21.5995 62.9165 21.518 62.6304 21.5328C62.609 21.5343 62.5867 21.5358 62.5652 21.538C62.4993 21.5446 62.4341 21.5565 62.3703 21.5735C62.3688 21.5735 62.3681 21.5735 62.3666 21.5743C62.3466 21.5802 62.3266 21.5861 62.3066 21.5921C62.2851 21.5988 62.2643 21.6062 62.2436 21.6143C62.2236 21.6217 62.2035 21.6299 62.1835 21.6388C62.1828 21.6388 62.1828 21.6388 62.182 21.6395C62.142 21.6573 62.1013 21.6544 62.0679 21.638C62.0124 21.6121 61.976 21.5484 61.9968 21.4787C62.0939 21.1586 62.1835 20.6969 62.0198 20.4012C61.8989 20.184 61.7293 20.015 61.5358 19.9039L68.3403 13.0987C68.6471 12.7926 69.1437 12.7926 69.4498 13.0987L70.0286 13.6775L71.8227 15.4717L72.4015 16.0505C72.7076 16.3565 72.7076 16.853 72.4015 17.1598Z" fill="url(#paint19_linear_77_7)"/>
<path d="M71.8228 15.471L63.8622 23.4316C63.8459 23.3982 63.8429 23.3575 63.8607 23.3175C63.8614 23.3175 63.8614 23.3167 63.8614 23.3167C63.8792 23.276 63.9563 22.9995 63.9622 22.9343C63.9652 22.9121 63.9666 22.8906 63.9674 22.8691C63.9822 22.5831 63.9007 22.2925 63.7228 22.0509C63.685 21.999 63.6428 21.9501 63.5961 21.9034C63.5494 21.8567 63.5005 21.8145 63.4486 21.7767C63.207 21.5988 62.9165 21.5173 62.6305 21.5321C62.609 21.5329 62.5875 21.5344 62.5652 21.5373C62.5 21.5432 62.4348 21.5551 62.3703 21.5729C62.3689 21.5729 62.3681 21.5729 62.3666 21.5736C62.3466 21.5788 62.2036 21.6292 62.1836 21.6381C62.1828 21.6381 62.1828 21.6381 62.1821 21.6388C62.142 21.6566 62.1013 21.6537 62.0679 21.6373L70.0285 13.6768L71.8228 15.471Z" fill="url(#paint20_linear_77_7)"/>
<path d="M60.6585 24.8412C60.4452 24.6279 60.2068 24.4567 59.9546 24.3267L59.5207 25.5404C59.4232 25.8132 59.6866 26.0766 59.9593 25.9791L61.1731 25.5452C61.043 25.293 60.8719 25.0545 60.6585 24.8412Z" fill="url(#paint21_linear_77_7)"/>
<path d="M78.8655 6.63478L70.6483 14.852L69.4463 13.6499C69.1843 13.3879 69.1843 12.9631 69.4463 12.7011L70.1652 11.9822C70.4755 11.6719 70.6498 11.251 70.6498 10.8122V9.91628C70.6498 9.21145 71.0963 8.58399 71.7622 8.35301L78.4818 6.02222C78.8538 5.89316 79.1439 6.35635 78.8655 6.63478Z" fill="url(#paint22_linear_77_7)"/>
<path d="M78.8655 6.63477L70.6483 14.852L71.8503 16.054C72.1123 16.316 72.5372 16.316 72.7992 16.054L73.5181 15.3351C73.8284 15.0247 74.2493 14.8504 74.6881 14.8504H75.5839C76.2888 14.8504 76.9162 14.4039 77.1472 13.738L79.478 7.01846C79.6071 6.6465 79.1439 6.35633 78.8655 6.63477Z" fill="url(#paint23_linear_77_7)"/>
<path d="M74.994 10.8923L79.1215 6.76483C79.2242 6.66208 79.2364 6.49483 79.1405 6.38565C79.0354 6.266 78.853 6.26161 78.7422 6.37239L74.6178 10.4968C74.3478 10.7669 73.9736 10.9147 73.5931 10.8811C73.2412 10.85 72.8776 10.9832 72.6268 11.2809C72.2713 11.7027 72.2769 12.3318 72.6392 12.7478C73.0741 13.2472 73.8325 13.2668 74.2928 12.8065C74.5339 12.5655 74.6432 12.2427 74.621 11.9274C74.5939 11.5433 74.7217 11.1645 74.994 10.8923Z" fill="url(#paint24_linear_77_7)"/>
<path d="M70.5801 11.2871C70.5021 11.5473 70.3607 11.7868 70.1652 11.9824L69.4463 12.7013C69.1843 12.9633 69.1843 13.3882 69.4463 13.6502L70.6483 14.8522L71.8503 16.0542C72.1123 16.3162 72.5372 16.3162 72.7992 16.0542L73.5181 15.3353C73.7136 15.1397 73.9532 14.9983 74.2134 14.9204L70.5801 11.2871Z" fill="url(#paint25_linear_77_7)"/>
<path d="M71.3952 18.166L67.334 14.1048L68.9525 12.4863C69.14 12.2988 69.4439 12.2988 69.6313 12.4863L73.0137 15.8687C73.2012 16.0562 73.2012 16.3601 73.0137 16.5475L71.3952 18.166Z" fill="url(#paint26_linear_77_7)"/>
</g>
<defs>
<linearGradient id="paint0_linear_77_7" x1="27.9816" y1="15.5221" x2="36.2941" y2="32.1471" gradientUnits="userSpaceOnUse">
<stop stop-color="#9A8CFF"/>
<stop offset="0.64375" stop-color="#4654F9"/>
</linearGradient>
<linearGradient id="paint1_linear_77_7" x1="68.4787" y1="6.20962" x2="74.7169" y2="12.4478" gradientUnits="userSpaceOnUse">
<stop stop-color="#FFF5D9"/>
<stop offset="1" stop-color="#FFCE47"/>
</linearGradient>
<linearGradient id="paint2_linear_77_7" x1="61.2669" y1="12.4849" x2="64.0592" y2="15.2771" gradientUnits="userSpaceOnUse">
<stop stop-color="#6FA953"/>
<stop offset="1" stop-color="#43765A"/>
</linearGradient>
<linearGradient id="paint3_linear_77_7" x1="65.8207" y1="7.6029" x2="69.4902" y2="11.2724" gradientUnits="userSpaceOnUse">
<stop stop-color="#E4E08E"/>
<stop offset="1" stop-color="#6FA953"/>
</linearGradient>
<linearGradient id="paint4_linear_77_7" x1="72.5132" y1="10.2441" x2="78.4689" y2="16.1998" gradientUnits="userSpaceOnUse">
<stop stop-color="#FFCE47"/>
<stop offset="1" stop-color="#FF9356"/>
</linearGradient>
<linearGradient id="paint5_linear_77_7" x1="73.8362" y1="15.6183" x2="77.2889" y2="19.0709" gradientUnits="userSpaceOnUse">
<stop stop-color="#FF9356"/>
<stop offset="1" stop-color="#FF755C"/>
</linearGradient>
<linearGradient id="paint6_linear_77_7" x1="60.7694" y1="16.0385" x2="64.8321" y2="20.1012" gradientUnits="userSpaceOnUse">
<stop stop-color="#7ACBFF"/>
<stop offset="1" stop-color="#45A2E0"/>
</linearGradient>
<linearGradient id="paint7_linear_77_7" x1="69.4935" y1="20.7115" x2="72.9018" y2="24.1197" gradientUnits="userSpaceOnUse">
<stop stop-color="#FF755C"/>
<stop offset="1" stop-color="#FF4181"/>
</linearGradient>
<linearGradient id="paint8_linear_77_7" x1="63.6756" y1="18.9449" x2="71.9171" y2="27.1864" gradientUnits="userSpaceOnUse">
<stop stop-color="#FF4181"/>
<stop offset="1" stop-color="#843561"/>
</linearGradient>
<linearGradient id="paint9_linear_77_7" x1="73.2677" y1="12.609" x2="69.4284" y2="8.7697" gradientUnits="userSpaceOnUse">
<stop stop-color="#FFF5D9"/>
<stop offset="1" stop-color="#FFCE47"/>
</linearGradient>
<linearGradient id="paint10_linear_77_7" x1="65.6819" y1="15.7605" x2="60.9234" y2="11.002" gradientUnits="userSpaceOnUse">
<stop stop-color="#6FA953"/>
<stop offset="1" stop-color="#43765A"/>
</linearGradient>
<linearGradient id="paint11_linear_77_7" x1="69.01" y1="11.931" x2="64.7752" y2="7.69619" gradientUnits="userSpaceOnUse">
<stop stop-color="#E4E08E"/>
<stop offset="1" stop-color="#6FA953"/>
</linearGradient>
<linearGradient id="paint12_linear_77_7" x1="76.6126" y1="15.9538" x2="72.142" y2="11.4832" gradientUnits="userSpaceOnUse">
<stop stop-color="#FFCE47"/>
<stop offset="1" stop-color="#FF9356"/>
</linearGradient>
<linearGradient id="paint13_linear_77_7" x1="76.3044" y1="19.2255" x2="73.3176" y2="16.2387" gradientUnits="userSpaceOnUse">
<stop stop-color="#FF9356"/>
<stop offset="1" stop-color="#FF755C"/>
</linearGradient>
<linearGradient id="paint14_linear_77_7" x1="66.8554" y1="20.5138" x2="61.3411" y2="14.9995" gradientUnits="userSpaceOnUse">
<stop stop-color="#7ACBFF"/>
<stop offset="1" stop-color="#45A2E0"/>
</linearGradient>
<linearGradient id="paint15_linear_77_7" x1="72.8851" y1="22.9635" x2="68.8658" y2="18.9443" gradientUnits="userSpaceOnUse">
<stop stop-color="#FF755C"/>
<stop offset="1" stop-color="#FF4181"/>
</linearGradient>
<linearGradient id="paint16_linear_77_7" x1="69.5908" y1="23.2489" x2="64.6856" y2="18.3438" gradientUnits="userSpaceOnUse">
<stop stop-color="#FF4181"/>
<stop offset="1" stop-color="#843561"/>
</linearGradient>
<linearGradient id="paint17_linear_77_7" x1="73.5513" y1="20.0516" x2="70.7006" y2="17.2009" gradientUnits="userSpaceOnUse">
<stop stop-color="#843561" stop-opacity="0"/>
<stop offset="1" stop-color="#3A2F4D"/>
</linearGradient>
<linearGradient id="paint18_linear_77_7" x1="59.9801" y1="21.458" x2="64.0401" y2="25.518" gradientUnits="userSpaceOnUse">
<stop stop-color="#FFE0EA"/>
<stop offset="1" stop-color="#FFC0D5"/>
</linearGradient>
<linearGradient id="paint19_linear_77_7" x1="61.5358" y1="18.4167" x2="72.6311" y2="18.4167" gradientUnits="userSpaceOnUse">
<stop stop-color="#FFCE47"/>
<stop offset="1" stop-color="#FF9356"/>
</linearGradient>
<linearGradient id="paint20_linear_77_7" x1="68.6302" y1="20.2391" x2="64.531" y2="16.1398" gradientUnits="userSpaceOnUse">
<stop stop-color="#FFCE47"/>
<stop offset="1" stop-color="#FF9356"/>
</linearGradient>
<linearGradient id="paint21_linear_77_7" x1="60.0123" y1="25.2406" x2="61.0482" y2="26.2766" gradientUnits="userSpaceOnUse">
<stop stop-color="#2F73A0"/>
<stop offset="1" stop-color="#174461"/>
</linearGradient>
<linearGradient id="paint22_linear_77_7" x1="73.9294" y1="9.51022" x2="74.464" y2="10.3885" gradientUnits="userSpaceOnUse">
<stop stop-color="#EDF5FF"/>
<stop offset="1" stop-color="#C7E9FF"/>
</linearGradient>
<linearGradient id="paint23_linear_77_7" x1="75.2872" y1="11.2003" x2="76.0127" y2="12.4986" gradientUnits="userSpaceOnUse">
<stop stop-color="#EDF5FF"/>
<stop offset="1" stop-color="#C7E9FF"/>
</linearGradient>
<linearGradient id="paint24_linear_77_7" x1="76.6581" y1="10.332" x2="75.4122" y2="9.08607" gradientUnits="userSpaceOnUse">
<stop stop-color="#2F73A0"/>
<stop offset="1" stop-color="#174461"/>
</linearGradient>
<linearGradient id="paint25_linear_77_7" x1="71.9374" y1="13.5624" x2="71.2567" y2="14.2431" gradientUnits="userSpaceOnUse">
<stop stop-color="#7ACBFF" stop-opacity="0"/>
<stop offset="1" stop-color="#2F73A0"/>
</linearGradient>
<linearGradient id="paint26_linear_77_7" x1="70.6617" y1="14.5556" x2="69.602" y2="16.2574" gradientUnits="userSpaceOnUse">
<stop stop-color="#2F73A0"/>
<stop offset="1" stop-color="#174461"/>
</linearGradient>
<clipPath id="clip0_77_7">
<rect width="107" height="33" fill="white"/>
</clipPath>
</defs>
</svg>
